<svg version="1.1" id="Layer_1" xmlns="http://www.w3.org/2000/svg" xmlns:xlink="http://www.w3.org/1999/xlink" x="0px" y="0px" width="100%" viewBox="0 0 280 234" enable-background="new 0 0 280 234" xml:space="preserve">

<path fill="#FDFDFD" opacity="1.000000" stroke="none" d="
M159.002533,192.078110 
	C155.337250,187.992142 151.891785,184.064651 148.005417,180.637115 
	C145.531097,178.454926 145.536499,176.324249 147.382446,174.365952 
	C148.818237,172.842789 150.961212,171.763199 152.990189,171.092163 
	C154.644257,170.545120 156.594879,170.894791 158.414017,170.846863 
	C157.723663,169.173721 157.057083,167.490295 156.339157,165.829071 
	C151.271194,154.102356 142.278778,145.762283 132.276443,138.195114 
	C123.188850,148.024857 111.932518,154.066284 98.656464,156.815338 
	C88.746437,158.867401 75.713768,152.644760 71.768562,143.244598 
	C68.945114,136.517227 72.095917,127.891167 79.694046,123.143059 
	C85.732231,119.369759 92.371483,117.281151 99.680244,116.896439 
	C110.088966,116.348526 120.064224,117.675728 129.856186,121.984642 
	C136.586090,111.053078 141.699707,99.853905 143.068497,87.109940 
	C143.653168,81.666435 145.803528,76.306053 145.811218,70.905861 
	C145.822342,63.102909 145.078873,55.197956 143.672592,47.516804 
	C141.378113,34.984303 136.566284,23.296495 130.024628,12.304806 
	C129.399155,11.253859 130.672562,9.072809 131.064453,7.416394 
	C133.243393,7.999282 136.399734,7.880663 137.416656,9.297549 
	C140.380539,13.427169 143.005371,17.973009 144.821381,22.716225 
	C148.197098,31.533232 151.067490,40.556709 153.802292,49.598869 
	C154.731888,52.672340 154.877045,56.056446 154.933441,59.306374 
	C155.080795,67.798355 155.882553,76.418198 154.739624,84.756256 
	C153.463120,94.068771 150.574173,103.198715 147.891830,112.261566 
	C146.782272,116.010437 144.642868,119.543900 142.500412,122.871841 
	C140.469147,126.027061 140.918930,128.261963 143.814102,130.315689 
	C151.990814,136.115936 158.471527,143.555557 164.144592,151.711456 
	C166.705215,155.392715 168.856186,159.358932 171.722595,164.065430 
	C174.539307,160.045425 176.635681,156.472855 179.332809,153.433334 
	C180.824631,151.752136 183.503311,149.738678 185.332031,150.008621 
	C190.282761,150.739441 191.802689,154.565155 188.692245,158.529861 
	C183.600662,165.019836 179.452881,171.853470 178.999405,180.213547 
	C178.566605,188.192596 178.583710,196.209076 178.753876,204.201630 
	C178.825760,207.578171 178.835236,210.140961 174.735825,211.116684 
	C171.005707,212.004501 168.153809,211.048096 166.456207,207.889130 
	C163.755798,202.864120 161.487000,197.607162 159.002533,192.078110 
M118.947601,133.518890 
	C111.987160,128.380508 95.377182,128.595383 87.501106,134.111664 
	C85.828865,135.282867 84.644684,137.150925 83.235641,138.697922 
	C85.201447,140.150528 87.050560,141.816605 89.175537,142.977997 
	C90.512680,143.708801 92.249969,143.834930 93.830368,143.972473 
	C103.771851,144.837585 111.487808,139.841995 118.947601,133.518890 
z" data-index="1" style="opacity: 1; visibility: visible; fill: rgb(223, 223, 223);"></path>

</svg>